
<?xml version="1.0" standalone="no"?>
<!DOCTYPE svg PUBLIC "-//W3C//DTD SVG 20010904//EN"
 "http://www.w3.org/TR/2001/REC-SVG-20010904/DTD/svg10.dtd">
<svg version="1.0" xmlns="http://www.w3.org/2000/svg"
 width="284.000000pt" height="177.000000pt" viewBox="0 0 284.000000 177.000000"
 preserveAspectRatio="xMidYMid meet">
<metadata>
Created by potrace 1.16, written by Peter Selinger 2001-2019
</metadata>
<g transform="translate(0.000000,177.000000) scale(0.100000,-0.100000)"
fill="#000000" stroke="none">
<path d="M0 1610 c0 -194 4 -207 72 -216 l49 -7 -31 -31 c-30 -28 -32 -34 -26
-79 l7 -48 -30 16 c-17 8 -32 15 -36 15 -3 0 -5 -283 -5 -630 l0 -630 1415 0
1415 0 0 298 c0 163 3 561 7 885 l6 587 -99 0 c-103 -1 -127 -9 -137 -45 -5
-19 -5 -19 -6 0 0 12 4 26 11 33 19 19 -334 17 -370 -2 -82 -43 -144 -160
-137 -261 7 -109 52 -184 143 -243 48 -30 67 -36 127 -40 62 -4 79 -1 125 21
30 15 56 25 57 23 8 -8 -84 -99 -122 -122 -59 -34 -99 -45 -176 -46 -145 -2
-267 78 -336 221 -24 49 -28 68 -28 156 0 90 3 106 29 159 16 32 48 78 71 102
l42 44 -89 0 c-78 0 -88 -2 -88 -18 0 -10 -9 -25 -19 -34 -18 -15 -21 -15 -41
7 -12 13 -19 28 -15 34 4 7 -3 11 -17 11 -19 0 -20 -2 -8 -10 13 -9 10 -15
-18 -41 -32 -29 -33 -31 -15 -44 10 -8 24 -12 31 -10 20 7 14 -5 -23 -46 -19
-22 -35 -35 -35 -30 0 6 5 13 10 16 12 7 -44 84 -68 93 -9 3 -22 -4 -32 -16
l-17 -21 -24 25 -23 24 22 22 22 22 24 -23 c23 -22 26 -22 42 -7 15 16 17 16
31 -1 13 -16 13 -16 3 5 -6 12 -8 27 -5 32 8 13 -704 13 -724 1 -7 -5 -12 -14
-9 -21 6 -20 49 -22 72 -3 12 9 -4 -8 -34 -39 -30 -30 -57 -54 -59 -52 -2 2 2
10 9 18 10 13 5 23 -28 58 l-41 43 -24 -23 -23 -22 -24 25 -23 25 -389 0 -388
0 0 -160z m321 123 c9 -10 39 -39 66 -64 l51 -47 -31 -31 c-30 -30 -31 -31
-12 -45 11 -7 25 -12 32 -9 24 9 13 -13 -23 -48 -28 -26 -35 -29 -30 -14 4 15
-4 31 -30 58 -41 41 -46 43 -64 22 -17 -20 -33 -19 -53 3 -16 17 -15 20 8 42
l25 23 23 -22 c22 -19 25 -20 37 -6 7 9 19 14 27 11 10 -4 11 -1 3 14 -12 23
-13 33 -2 26 10 -6 9 30 0 40 -4 3 -16 1 -27 -6 -17 -9 -25 -7 -43 9 -21 20
-21 21 -3 41 22 24 26 25 46 3z m953 -127 c14 -30 23 -36 61 -42 25 -3 45 -8
45 -10 0 -1 -13 -18 -30 -36 -16 -18 -28 -39 -25 -48 2 -8 7 -28 11 -43 l7
-29 -42 22 -42 21 -33 -21 c-18 -11 -37 -20 -41 -20 -4 0 -5 20 -2 45 4 43 2
47 -31 75 -38 31 -38 32 33 42 11 2 29 20 40 41 11 20 23 37 26 37 4 0 14 -15
23 -34z m-322 -340 c50 -50 52 -63 11 -89 -16 -10 -17 -34 -1 -43 7 -5 8 -3 3
7 -8 12 -6 12 8 0 9 -7 25 -10 34 -7 10 4 -2 -13 -26 -38 -25 -25 -47 -43 -50
-39 -3 3 0 8 7 10 20 7 14 20 -23 54 -37 34 -44 59 -21 78 8 7 14 26 14 42 -1
24 -5 30 -18 26 -20 -5 -28 0 -49 26 -12 15 -11 20 4 37 21 23 16 26 107 -64z
m644 -11 c12 -29 20 -35 43 -35 16 0 37 -3 46 -6 14 -6 12 -11 -14 -38 -28
-28 -29 -34 -21 -71 11 -47 9 -50 -22 -34 -37 21 -58 21 -93 -1 -18 -11 -34
-20 -37 -20 -3 0 -2 20 2 45 6 40 4 47 -22 72 -15 15 -28 30 -28 34 0 4 18 10
40 14 35 6 52 17 56 35 3 18 18 40 26 40 5 0 16 -16 24 -35z m-883 -258 c14
-29 21 -33 59 -36 23 -1 44 -4 46 -6 3 -2 -10 -18 -27 -35 -35 -36 -34 -33
-21 -79 12 -42 9 -46 -22 -30 -38 21 -64 21 -103 -2 l-37 -22 7 47 c7 45 5 50
-26 82 -26 26 -29 34 -16 35 9 1 22 3 27 4 6 1 19 3 29 4 12 1 25 15 35 42 18
45 26 44 49 -4z m287 -679 c0 -7 -4 -20 -9 -27 -6 -9 -6 -22 0 -34 10 -18 12
-18 30 -1 25 22 37 10 20 -19 -13 -20 -13 -21 2 -8 10 7 17 22 17 31 0 25 10
50 21 50 5 0 9 -17 9 -37 1 -31 3 -35 11 -20 15 25 47 22 52 -5 4 -19 5 -18 6
6 1 23 4 27 19 21 9 -4 25 -7 35 -7 11 1 17 -7 18 -21 l0 -22 16 23 c8 12 24
22 34 22 10 0 19 -9 22 -22 3 -13 4 -8 4 12 0 20 3 42 7 49 13 20 31 -16 28
-54 -2 -23 -1 -27 7 -15 6 8 11 10 11 4 0 -6 -6 -16 -12 -22 -15 -12 -117 -11
-136 1 -7 5 -18 4 -25 -1 -7 -5 -49 -9 -95 -8 -55 1 -82 -3 -82 -10 0 -14 -44
-44 -64 -44 -26 0 -26 29 1 48 19 14 24 24 19 40 -4 12 -15 22 -24 23 -11 0
-12 3 -4 6 6 2 12 10 12 17 0 16 21 36 37 36 7 0 13 -6 13 -12z"/>
</g>
</svg>
